<svg viewBox="0 0 1054.0908203125 400" xmlns="http://www.w3.org/2000/svg"><g><g><g><g><g><line x1="51.5625" y1="377" x2="46.5625" y2="377" style="visibility: inherit;" fill="rgb(0, 0, 0)" stroke="rgb(204, 204, 204)" stroke-width="1px"></line><line x1="51.5625" y1="350.0714285714286" x2="46.5625" y2="350.0714285714286" style="visibility: inherit;" fill="rgb(0, 0, 0)" stroke="rgb(204, 204, 204)" stroke-width="1px"></line><line x1="51.5625" y1="323.14285714285717" x2="46.5625" y2="323.14285714285717" style="visibility: inherit;" fill="rgb(0, 0, 0)" stroke="rgb(204, 204, 204)" stroke-width="1px"></line><line x1="51.5625" y1="296.2142857142857" x2="46.5625" y2="296.2142857142857" style="visibility: inherit;" fill="rgb(0, 0, 0)" stroke="rgb(204, 204, 204)" stroke-width="1px"></line><line x1="51.5625" y1="269.28571428571433" x2="46.5625" y2="269.28571428571433" style="visibility: inherit;" fill="rgb(0, 0, 0)" stroke="rgb(204, 204, 204)" stroke-width="1px"></line><line x1="51.5625" y1="242.35714285714286" x2="46.5625" y2="242.35714285714286" style="visibility: inherit;" fill="rgb(0, 0, 0)" stroke="rgb(204, 204, 204)" stroke-width="1px"></line><line x1="51.5625" y1="215.4285714285715" x2="46.5625" y2="215.4285714285715" style="visibility: inherit;" fill="rgb(0, 0, 0)" stroke="rgb(204, 204, 204)" stroke-width="1px"></line><line x1="51.5625" y1="188.5" x2="46.5625" y2="188.5" style="visibility: inherit;" fill="rgb(0, 0, 0)" stroke="rgb(204, 204, 204)" stroke-width="1px"></line><line x1="51.5625" y1="161.57142857142858" x2="46.5625" y2="161.57142857142858" style="visibility: inherit;" fill="rgb(0, 0, 0)" stroke="rgb(204, 204, 204)" stroke-width="1px"></line><line x1="51.5625" y1="134.64285714285714" x2="46.5625" y2="134.64285714285714" style="visibility: inherit;" fill="rgb(0, 0, 0)" stroke="rgb(204, 204, 204)" stroke-width="1px"></line><line x1="51.5625" y1="107.7142857142858" x2="46.5625" y2="107.7142857142858" style="visibility: inherit;" fill="rgb(0, 0, 0)" stroke="rgb(204, 204, 204)" stroke-width="1px"></line><line x1="51.5625" y1="80.78571428571433" x2="46.5625" y2="80.78571428571433" style="visibility: inherit;" fill="rgb(0, 0, 0)" stroke="rgb(204, 204, 204)" stroke-width="1px"></line><line x1="51.5625" y1="53.85714285714292" x2="46.5625" y2="53.85714285714292" style="visibility: inherit;" fill="rgb(0, 0, 0)" stroke="rgb(204, 204, 204)" stroke-width="1px"></line><line x1="51.5625" y1="26.92857142857146" x2="46.5625" y2="26.92857142857146" style="visibility: inherit;" fill="rgb(0, 0, 0)" stroke="rgb(204, 204, 204)" stroke-width="1px"></line><line x1="51.5625" y1="0" x2="46.5625" y2="0" style="visibility: inherit;" fill="rgb(0, 0, 0)" stroke="rgb(204, 204, 204)" stroke-width="1px"></line></g><g transform="translate(41.5625, 0)"><text x="0" y="377" dx="0em" dy="0.3em" style="text-anchor: end; visibility: hidden; font-family: Roboto, sans-serif; font-size: 12px; font-weight: 200;" fill="rgb(33, 33, 33)" stroke="none" stroke-width="1px">0.65</text><text x="0" y="350.0714285714286" dx="0em" dy="0.3em" style="text-anchor: end; visibility: inherit; font-family: Roboto, sans-serif; font-size: 12px; font-weight: 200;" fill="rgb(33, 33, 33)" stroke="none" stroke-width="1px">0.7</text><text x="0" y="323.14285714285717" dx="0em" dy="0.3em" style="text-anchor: end; visibility: inherit; font-family: Roboto, sans-serif; font-size: 12px; font-weight: 200;" fill="rgb(33, 33, 33)" stroke="none" stroke-width="1px">0.75</text><text x="0" y="296.2142857142857" dx="0em" dy="0.3em" style="text-anchor: end; visibility: inherit; font-family: Roboto, sans-serif; font-size: 12px; font-weight: 200;" fill="rgb(33, 33, 33)" stroke="none" stroke-width="1px">0.8</text><text x="0" y="269.28571428571433" dx="0em" dy="0.3em" style="text-anchor: end; visibility: inherit; font-family: Roboto, sans-serif; font-size: 12px; font-weight: 200;" fill="rgb(33, 33, 33)" stroke="none" stroke-width="1px">0.85</text><text x="0" y="242.35714285714286" dx="0em" dy="0.3em" style="text-anchor: end; visibility: inherit; font-family: Roboto, sans-serif; font-size: 12px; font-weight: 200;" fill="rgb(33, 33, 33)" stroke="none" stroke-width="1px">0.9</text><text x="0" y="215.4285714285715" dx="0em" dy="0.3em" style="text-anchor: end; visibility: inherit; font-family: Roboto, sans-serif; font-size: 12px; font-weight: 200;" fill="rgb(33, 33, 33)" stroke="none" stroke-width="1px">0.95</text><text x="0" y="188.5" dx="0em" dy="0.3em" style="text-anchor: end; visibility: inherit; font-family: Roboto, sans-serif; font-size: 12px; font-weight: 200;" fill="rgb(33, 33, 33)" stroke="none" stroke-width="1px">1</text><text x="0" y="161.57142857142858" dx="0em" dy="0.3em" style="text-anchor: end; visibility: inherit; font-family: Roboto, sans-serif; font-size: 12px; font-weight: 200;" fill="rgb(33, 33, 33)" stroke="none" stroke-width="1px">1.05</text><text x="0" y="134.64285714285714" dx="0em" dy="0.3em" style="text-anchor: end; visibility: inherit; font-family: Roboto, sans-serif; font-size: 12px; font-weight: 200;" fill="rgb(33, 33, 33)" stroke="none" stroke-width="1px">1.1</text><text x="0" y="107.7142857142858" dx="0em" dy="0.3em" style="text-anchor: end; visibility: inherit; font-family: Roboto, sans-serif; font-size: 12px; font-weight: 200;" fill="rgb(33, 33, 33)" stroke="none" stroke-width="1px">1.15</text><text x="0" y="80.78571428571433" dx="0em" dy="0.3em" style="text-anchor: end; visibility: inherit; font-family: Roboto, sans-serif; font-size: 12px; font-weight: 200;" fill="rgb(33, 33, 33)" stroke="none" stroke-width="1px">1.2</text><text x="0" y="53.85714285714292" dx="0em" dy="0.3em" style="text-anchor: end; visibility: inherit; font-family: Roboto, sans-serif; font-size: 12px; font-weight: 200;" fill="rgb(33, 33, 33)" stroke="none" stroke-width="1px">1.25</text><text x="0" y="26.92857142857146" dx="0em" dy="0.3em" style="text-anchor: end; visibility: inherit; font-family: Roboto, sans-serif; font-size: 12px; font-weight: 200;" fill="rgb(33, 33, 33)" stroke="none" stroke-width="1px">1.3</text><text x="0" y="0" dx="0em" dy="0.3em" style="text-anchor: end; visibility: hidden; font-family: Roboto, sans-serif; font-size: 12px; font-weight: 200;" fill="rgb(33, 33, 33)" stroke="none" stroke-width="1px">1.35</text></g><line x1="51.5625" y1="0" x2="51.5625" y2="377" fill="rgb(0, 0, 0)" stroke="rgb(204, 204, 204)" stroke-width="1px"></line></g></g><g transform="translate(51, 0)" clip-path="url(#clip_0)"><clipPath id="clip_0"><rect width="1002" height="376"></rect></clipPath><g><g><g><line x1="0" y1="0" x2="0" y2="377" fill="rgb(0, 0, 0)" stroke="rgb(66, 66, 66)" stroke-width="1px" opacity="0.25"></line><line x1="100.25275" y1="0" x2="100.25275" y2="377" fill="rgb(0, 0, 0)" stroke="rgb(66, 66, 66)" stroke-width="1px" opacity="0.25"></line><line x1="200.5055" y1="0" x2="200.5055" y2="377" fill="rgb(0, 0, 0)" stroke="rgb(66, 66, 66)" stroke-width="1px" opacity="0.25"></line><line x1="300.75825000000003" y1="0" x2="300.75825000000003" y2="377" fill="rgb(0, 0, 0)" stroke="rgb(66, 66, 66)" stroke-width="1px" opacity="0.25"></line><line x1="401.011" y1="0" x2="401.011" y2="377" fill="rgb(0, 0, 0)" stroke="rgb(66, 66, 66)" stroke-width="1px" opacity="0.25"></line><line x1="501.2637500000001" y1="0" x2="501.2637500000001" y2="377" fill="rgb(0, 0, 0)" stroke="rgb(66, 66, 66)" stroke-width="1px" opacity="0.25"></line><line x1="601.5165000000001" y1="0" x2="601.5165000000001" y2="377" fill="rgb(0, 0, 0)" stroke="rgb(66, 66, 66)" stroke-width="1px" opacity="0.25"></line><line x1="701.76925" y1="0" x2="701.76925" y2="377" fill="rgb(0, 0, 0)" stroke="rgb(66, 66, 66)" stroke-width="1px" opacity="0.25"></line><line x1="802.022" y1="0" x2="802.022" y2="377" fill="rgb(0, 0, 0)" stroke="rgb(66, 66, 66)" stroke-width="1px" opacity="0.25"></line><line x1="902.2747500000002" y1="0" x2="902.2747500000002" y2="377" fill="rgb(0, 0, 0)" stroke="rgb(66, 66, 66)" stroke-width="1px" opacity="0.25"></line><line x1="1002.5274999999999" y1="0" x2="1002.5274999999999" y2="377" fill="rgb(0, 0, 0)" stroke="rgb(66, 66, 66)" stroke-width="1px" opacity="0.25"></line></g><g><line x1="0" y1="377" x2="1002.5274999999999" y2="377" fill="rgb(0, 0, 0)" stroke="rgb(66, 66, 66)" stroke-width="1px" opacity="0.25"></line><line x1="0" y1="350.0714285714286" x2="1002.5274999999999" y2="350.0714285714286" fill="rgb(0, 0, 0)" stroke="rgb(66, 66, 66)" stroke-width="1px" opacity="0.25"></line><line x1="0" y1="323.14285714285717" x2="1002.5274999999999" y2="323.14285714285717" fill="rgb(0, 0, 0)" stroke="rgb(66, 66, 66)" stroke-width="1px" opacity="0.25"></line><line x1="0" y1="296.2142857142857" x2="1002.5274999999999" y2="296.2142857142857" fill="rgb(0, 0, 0)" stroke="rgb(66, 66, 66)" stroke-width="1px" opacity="0.25"></line><line x1="0" y1="269.28571428571433" x2="1002.5274999999999" y2="269.28571428571433" fill="rgb(0, 0, 0)" stroke="rgb(66, 66, 66)" stroke-width="1px" opacity="0.25"></line><line x1="0" y1="242.35714285714286" x2="1002.5274999999999" y2="242.35714285714286" fill="rgb(0, 0, 0)" stroke="rgb(66, 66, 66)" stroke-width="1px" opacity="0.25"></line><line x1="0" y1="215.4285714285715" x2="1002.5274999999999" y2="215.4285714285715" fill="rgb(0, 0, 0)" stroke="rgb(66, 66, 66)" stroke-width="1px" opacity="0.25"></line><line x1="0" y1="188.5" x2="1002.5274999999999" y2="188.5" fill="rgb(0, 0, 0)" stroke="rgb(66, 66, 66)" stroke-width="1px" opacity="0.25"></line><line x1="0" y1="161.57142857142858" x2="1002.5274999999999" y2="161.57142857142858" fill="rgb(0, 0, 0)" stroke="rgb(66, 66, 66)" stroke-width="1px" opacity="0.25"></line><line x1="0" y1="134.64285714285714" x2="1002.5274999999999" y2="134.64285714285714" fill="rgb(0, 0, 0)" stroke="rgb(66, 66, 66)" stroke-width="1px" opacity="0.25"></line><line x1="0" y1="107.7142857142858" x2="1002.5274999999999" y2="107.7142857142858" fill="rgb(0, 0, 0)" stroke="rgb(66, 66, 66)" stroke-width="1px" opacity="0.25"></line><line x1="0" y1="80.78571428571433" x2="1002.5274999999999" y2="80.78571428571433" fill="rgb(0, 0, 0)" stroke="rgb(66, 66, 66)" stroke-width="1px" opacity="0.25"></line><line x1="0" y1="53.85714285714292" x2="1002.5274999999999" y2="53.85714285714292" fill="rgb(0, 0, 0)" stroke="rgb(66, 66, 66)" stroke-width="1px" opacity="0.25"></line><line x1="0" y1="26.92857142857146" x2="1002.5274999999999" y2="26.92857142857146" fill="rgb(0, 0, 0)" stroke="rgb(66, 66, 66)" stroke-width="1px" opacity="0.25"></line><line x1="0" y1="0" x2="1002.5274999999999" y2="0" fill="rgb(0, 0, 0)" stroke="rgb(66, 66, 66)" stroke-width="1px" opacity="0.25"></line></g></g></g><g><g><line x1="0" y1="727.0714285714286" x2="1002.5274999999999" y2="727.0714285714286" fill="rgb(0, 0, 0)" stroke="rgb(153, 153, 153)" stroke-width="1.5px"></line></g></g><g><g><line x1="100.25275" y1="0" x2="100.25275" y2="377" fill="rgb(0, 0, 0)" stroke="rgb(153, 153, 153)" stroke-width="1.5px"></line></g></g><g><g><g><g><g><path stroke="rgb(0, 153, 136)" stroke-width="2px" d="M152.85759576388892,-6.675884204120675L156.25505006944448,8.019912239090303L160.40439999999998,21.18042616602012L163.6347663888889,32.671835570334345L167.06006868055556,42.41930066679755L170.45752298611112,49.911228618867455L173.8271293055556,56.51251659236296L177.1688876388889,62.59969592302436L180.53849395833336,68.8237146690543L183.9081002777778,74.75233103012941L187.27770659722225,79.67927021168806L190.61946493055555,85.172208706951L193.96122326388888,89.93394827368915L197.3029815972222,94.04140272653767L200.67258791666669,98.43239295521028L203.9586502777778,103.57623444758912L207.35610458333335,107.96572576728356L210.67001493055554,112.65704048229786L213.92822930555562,116.38784788456064L217.38137958333337,120.32446848011138L220.7231379166667,122.78323281183984L224.12059222222226,125.97442459193266L227.37880659722222,129.6019911099423L230.6927169444445,132.85572420660063L233.95093131944444,136.44461973339986L237.40408159722224,139.30182427807026L240.69014395833335,141.8185525655117L244.0875982638889,144.3441481208903L247.45720458333338,147.30856078499585L250.77111493055557,149.62805207433144L254.0571772916667,151.5546838889583L257.45463159722226,154.50340829545593L260.6849979861111,156.82065165369968L264.05460430555553,159.9637061718146L267.3963626388889,162.14448616626726L270.76596895833336,164.02286884450126L274.19127125,165.0960708931907L277.19885375000007,168.14189282256697L280.5127640972222,170.99801623684326L284.6621140277778,173.17009768744606L287.97602437500007,174.1140938324779L290.8722149305556,175.88516562718493L294.1025813194445,177.7280258066047L297.4721876388889,179.98602660456848L300.9531859027778,181.97866823989753L304.35064020833335,183.75482555374967L307.6923985416667,185.35006395494796L311.08985284722223,188.27192571215198L314.4037631944445,190.18431686773178L317.7455215277778,192.66223731373037L321.03158388888886,193.75326971253324L323.9556224305556,195.42727421716623L327.38092472222223,196.64032291086272L330.66698708333337,199.82120955244326L333.98089743055556,201.1206246765931L336.98847993055557,202.47927953743385L339.9682144444445,203.91400299549454L343.4213647222223,205.36866084385136L346.79097104166675,206.9573543731975L350.13272937500005,207.9494388159024L353.5301836805556,209.34961178976596L357.01118194444444,210.85014324660645L360.29724430555564,211.65513392595636L363.22128284722226,213.27122925192742L366.59088916666667,214.45240872016498L370.0997354166667,216.01546196118136L373.55288569444446,218.41920887046706L377.00603597222226,220.64344611363376L380.48703423611107,222.42069187690305L384.0237284722222,223.47010265802186L387.1148549305556,225.10319907759254L390.51230923611115,226.4453271823801L394.04900347222224,227.54433147723114L397.5300017361111,229.13273453397622L401.011,231.12214947239121L404.5755422222223,231.66822414693576L407.72236465277774,233.3364602120275L411.8995625694445,235.33852766361304L415.1856249305556,236.1948069341227L418.1375114583334,237.04872049306732L421.0893979861111,237.63850994612855L424.8767240972223,238.67859510178445L428.2184824305556,239.70499178440707L431.50454479166666,240.03499929623885L434.48427930555556,241.01008781332598L437.7981896527778,242.1107401062521L441.1677959722222,241.8614945417328L444.1196825,243.13643857444845L447.4892888194444,243.65662571382407L450.4133273611111,244.93688929433756L453.7829336805556,245.9343923896432L457.12469201388893,247.40560178406884L460.46645034722223,247.36479701240992L463.3904888888889,248.9909916941446L466.81579118055555,249.71463579423818L469.7676777083334,251.69383496677293L473.1651320138889,253.00101549493243L476.451194375,254.36000233502793L479.7929527083333,254.8559859201579L482.68914326388887,255.28139084098072L485.6131818055556,256.3830567382245L488.9270921527778,257.9893899277047L492.24100250000004,258.1238448194637L495.248585,258.4325401255388L498.0612315972222,259.6789383435445L501.23590201388896,261.3068809646315L504.4662684027779,262.8532145241807L507.8358747222223,263.3031153128775L510.8156092361111,264.2986748978379L514.2130635416667,264.0749991395999L517.1092540972222,263.62237388757717L520.0889886111112,264.88365145417197L523.5142909027778,266.23559002471393L526.9117452083334,267.5096162376634L530.2813515277778,270.48442880021526L533.5674138888888,270.87805629283093L536.4914524305556,271.0004398921297L540.1673865972223,270.2211680811998L543.0635771527778,270.79547385161686L545.9876156944445,273.71584465375884L549.3015260416668,275.28989175379235L552.2534125694444,276.93787907186555L555.5951709027778,276.80323947358465L558.5470574305556,278.4381449309574L561.8888157638888,277.0991358536746L564.8128543055556,278.0292294574453L567.6255009027778,279.1983414025708L570.911563263889,279.65853475776083L573.8356018055556,280.3386913118425L577.177360138889,280.5498626695671L580.1570946527778,282.2541674960187L583.5545489583334,282.40919191258047L586.4785875,284.074736559662L589.8481938194445,283.4483221386084L592.8000803472222,284.63747892464454L595.6962709027778,284.7946436096913L598.5367654861111,285.221859191382L601.3772600694444,285.72681998369256L604.3012986111112,288.6959427034004L607.6987529166666,288.8775102993931L610.5113995138888,286.64867583093985L613.4632860416667,288.755812415264L616.2759326388889,288.7389548217802L619.1999711805557,290.70575749847586L622.541729513889,292.3624543971786L625.8556398611111,292.0103213207108L628.6682864583333,293.6121647350556L632.0378927777778,294.3767591063292L635.7138269444445,294.3307924867423L638.6378654861112,296.53156042954976L641.9239278472223,297.23283734835184L644.9315103472223,296.89072113072785L647.7998529166667,296.72636137166313L650.7795874305556,298.6594790291027L654.0378018055557,298.3282928747675L656.9339923611111,298.5839951751844L659.8858788888889,299.0188170656776L662.8377654166667,299.31861704670115L665.7061079861112,300.77303654004766L669.0200183333334,298.8887079871956L671.8883609027778,297.9218534658708L674.7567034722223,297.554482877361L677.5415020833334,298.5043091348879L680.3819966666667,300.8366978867097L683.7516029861112,300.66642606022276L686.7313375000001,302.4011797516144L690.1566397916667,302.07014830163695L693.1085263194445,301.4890738442635L696.0604128472222,302.7112385341582L699.0122993750001,303.99054293771644L702.4097536805557,304.8698896702532L705.8072079861112,304.0107703767064L708.7869425,304.83825272094265L711.766677013889,304.1875037707579L714.7464115277778,305.6568401958589L718.032473888889,305.1699611301278L720.9286644444444,306.40144121719584L724.2425747916668,304.78113621687237L727.2223093055555,303.92409437001385L730.2855877777779,306.17506745858236L733.6551940972223,307.5240847654195L736.6627765972223,308.63437476421564L740.0045349305556,309.04651145139434L742.9285734722223,309.53468205928266L745.8804600000001,306.89276264803425L748.7766505555555,309.7986938058289L752.1741048611111,309.36429087854003L755.1259913888889,309.03009848914485L758.1335738888889,310.47951584871635L761.2525483333334,312.4730990347795L764.7335465972222,311.5960404781165L767.4904972222223,313.749395637458L771.6119991666668,314.86908863963555L774.6752776388889,314.6239612314302L777.5714681944445,313.1656084868941L780.439810763889,313.46765093884665L783.3081533333334,313.90391528450806L786.204343888889,313.83072831537345L789.1005344444444,314.2884961674402L792.247356875,313.3468492386046L795.1992434027778,315.5036967626735L798.5688497222222,315.42371303882487L801.5485842361112,313.71251288935457L804.4447747916666,315.2764366483641L807.2852693750001,318.2005424304661L810.515635763889,317.6520287464942L813.4675222916667,318.5596831619416L816.3637128472224,318.7043699252411L819.2320554166668,320.64033580843585L822.4624218055557,319.71183439592613L825.3864603472223,321.14360532718104L828.3661948611112,321.0695969538181L831.3459293750002,324.1402435739894L834.7155356944445,324.14710153750366L837.7231181944445,324.03662730564605L840.6750047222223,322.33986339668684L843.6825872222222,323.59510770857486L846.9129536111112,321.3294938870337L849.7812961805556,321.29514127523953L852.7610306944443,321.8269170478913L856.5762047916668,324.16752063284196L859.4445473611112,325.8865531421977L862.3407379166667,325.00791612489684L865.2926244444444,324.9867925733887L868.2445109722224,324.2039811665155L871.1128535416668,323.46334601453685L873.9811961111111,325.18890120564373L876.8495386805556,325.25051022755196" style="fill: none;" fill="none"></path></g><g><path stroke="rgb(238, 51, 119)" stroke-width="2px" d="M190.61946493055555,-0.6124144383847339L193.96122326388888,1.3239037762907555L197.3029815972222,2.9193192569884596L200.67258791666669,8.620995945352606L203.98649826388893,14.02211594241835L207.35610458333335,22.035001525321796L210.69786291666668,28.05778179176003L213.95607729166667,28.591799413493845L217.38137958333337,31.238916494313674L220.7231379166667,33.38801029625733L224.12059222222226,37.56309623502557L227.40665458333334,39.573144828971365L230.6927169444445,44.96436936778121L233.97877930555558,51.13684066665701L237.40408159722224,46.88095847514612L240.69014395833335,53.24903877277915L244.11544625000002,54.989539138324275L247.45720458333338,57.65891285865328L250.77111493055557,58.5075162589595L254.0850252777778,60.065596614494794L257.45463159722226,64.78103468090941L260.6849979861111,68.02728132944455L264.05460430555553,70.57355273095915L267.42421062499994,68.51243503287645L270.76596895833336,73.99044413208769L274.19127125,76.32270927078956L277.19885375000007,80.7294006789932L280.5127640972222,83.23450652460343L284.6899620138889,84.69157520524236L288.0038723611112,85.2684037456694L290.90006291666674,85.62788071622585L294.13042930555554,86.32128647798389L297.50003562500007,90.22715852161727L300.9531859027778,93.57078031684975L304.35064020833335,92.22087190824072L307.6923985416667,93.7134674378304L311.08985284722223,96.0378177090753L314.4037631944445,98.98374529114697L317.7455215277778,105.99625295231972L321.03158388888886,105.5536831351788L323.9556224305556,106.7127738622998L327.38092472222223,110.42480581485574L330.6948350694445,112.96489766868822L334.00874541666667,114.60292544486698L336.98847993055557,113.28358675212353L339.9960624305556,116.32850679686655L343.4213647222223,121.21810820998206L346.79097104166675,120.99643390443516L350.16057736111117,119.38812791915124L353.5301836805556,120.6671833866662L357.01118194444444,120.21884832992548L360.29724430555564,122.4483345640564L363.24913083333337,126.31913167791751L366.59088916666667,122.20605796226457L370.0997354166667,129.51970317324586L373.55288569444446,133.03450221378813L377.00603597222226,134.41272903332924L380.48703423611107,133.51602761230197L384.05157645833333,135.49028477155252L387.1148549305556,134.7648595874493L390.54015722222226,140.46083558061207L394.04900347222224,141.5593163006726L397.5300017361111,142.9957198724794L401.011,144.93000420655125L404.5755422222223,146.74569933506183L407.7502126388889,151.36608610003873L411.8995625694445,151.36142222723603L415.1856249305556,153.34310421644685L418.1375114583334,154.27014064200708L421.11724597222224,159.7158360037258L424.8767240972223,157.05585290424622L428.2184824305556,157.3370991383521L431.50454479166666,158.4530680898402L434.48427930555556,162.41748155410812L437.8260376388889,160.7540035901667L441.19564395833333,161.76273967033978L444.1196825,163.70606867283112L447.4892888194444,166.06562027136493L450.4133273611111,163.58149840968L453.7829336805556,163.64999567590445L457.15254000000004,166.418682280486L460.49429833333335,165.38040110751018L463.418336875,169.84601137722234L466.81579118055555,171.62109510540355L469.7676777083334,174.6510309858627L473.1651320138889,173.07949993426925L476.47904236111117,177.38990444958827L479.7929527083333,179.4453447726321L482.71699125,179.18104206211788L485.6131818055556,176.55458502327716L488.9549401388889,176.39769357824935L492.24100250000004,178.76640063072293L495.248585,182.35343933004594L498.0612315972222,185.22519524377506L501.2637500000001,187.85690985098347L504.4662684027779,186.4390713332585L507.8358747222223,193.383990571409L510.8434572222223,188.23761888900538L514.2130635416667,186.27334343357936L517.1092540972222,187.97143227436578L520.0889886111112,190.89733741457897L523.5142909027778,194.07176055263577L526.9117452083334,197.54339731783327L530.2813515277778,193.11490125941773L533.5952618750001,195.04712942703514L536.5193004166667,196.42358707721553L540.1952345833333,195.49591852881971L543.0914251388889,193.2717802214701L546.0154636805555,194.35519725439005L549.3015260416668,200.12838035012936L552.2534125694444,201.27476471858333L555.6230188888889,202.42217123115046L558.5470574305556,202.5547480116809L561.8888157638888,204.9703099515921L564.8128543055556,204.49460567838983L567.6255009027778,209.05757972227607L570.911563263889,212.2910861699833L573.8356018055556,207.24687174816955L577.177360138889,212.6284208459686L580.184942638889,215.30362754839845L583.5545489583334,213.69455808950102L586.5064354861112,219.99703094777755L589.8203458333334,215.8566569310606L592.8000803472222,218.71522857423562L595.7241188888889,222.59167899722L598.5367654861111,218.76668495641346L601.3772600694444,216.5852759795048L604.3012986111112,218.09055126068085L607.6987529166666,217.8391332817926L610.5392475000001,217.35033223075513L613.4632860416667,220.32752518253662L616.2759326388889,220.45138863050937L619.1999711805557,219.74116233354638L622.541729513889,215.41928270847535L625.8834878472223,218.33061342898142L628.6682864583333,226.85381607178445L632.0378927777778,227.3410330327453L635.7138269444445,224.35397828974646L638.6378654861112,226.9577183429754L641.9517758333334,228.74069131723894L644.9315103472223,228.53981344119398L647.7998529166667,223.95877724503603L650.7795874305556,227.23432217947575L654.0656497916667,229.88682366471934L656.9618403472223,227.46416521705066L659.8858788888889,224.29205601254367L662.8377654166667,231.3098993147057L665.7339559722224,225.03809922518465L669.0200183333334,229.15048401958174L671.9162088888888,225.58832953473922L674.7845514583335,228.90148801352896L677.5415020833334,232.74149025101678L680.3819966666667,238.67881325341503L683.7794509722222,240.50665508014876L686.7313375000001,242.4715606826718L690.1566397916667,242.4628821782319L693.1085263194445,242.4446290833979L696.0604128472222,242.3190496949009L699.0122993750001,239.64912900680784L702.4376016666668,237.76978233327307L705.8072079861112,233.53424918659155L708.8147904861112,242.9324518374488L711.766677013889,242.33752070089068L714.7464115277778,242.42059460328238L718.060321875,247.44082071553257L720.9286644444444,245.401345334048L724.2425747916668,245.982912112233L727.2223093055555,244.9199188592348L730.2855877777779,243.00873905161615L733.6551940972223,243.41791981984653L736.6627765972223,245.6253605993359L740.0045349305556,251.71436008540545L742.9564214583334,246.85680359184258L745.8804600000001,242.74429835171077L748.7766505555555,248.62443252038437L752.1741048611111,248.24708740491556L755.1259913888889,244.17661967622573L758.1335738888889,240.6432909005296L761.2525483333334,244.38735155066323L764.7056986111112,250.06894149320752L767.5183452083334,248.87675635607073L771.6398471527779,249.59308882793118L774.6752776388889,245.29648970679074L777.5714681944445,252.19653342946035L780.4676587500002,254.0352774615677L783.3081533333334,255.48978978811965L786.2321918749999,252.89013173659777L789.1005344444444,252.00643004124578L792.2752048611111,252.21749359881582L795.1992434027778,250.8327740853258L798.5688497222222,255.53043837016477L801.5485842361112,255.072605346492L804.4447747916666,253.93503385134747L807.313117361111,254.97818295396863L810.5434837500001,253.1754120227801L813.4675222916667,256.1594379038449L816.3637128472224,257.83568816045226L819.2320554166668,259.1758959502962L822.4624218055557,253.38239530049827L825.3864603472223,258.1177197381952L828.3661948611112,257.4194314326192L831.3737773611111,262.15380512405653L834.7155356944445,260.77688863201183L837.7231181944445,263.5777942114752L840.6750047222223,264.4929898059007L843.6825872222222,263.8544082533416L846.9129536111112,265.72845993755266L849.8091441666667,265.38376584753485L852.7610306944443,267.93814134064377L856.5762047916668,262.00663575806067L859.4445473611112,268.99616182952684L862.3407379166667,269.02594603450547L865.2926244444444,266.35984763882857L868.2445109722224,266.721697182039L871.1128535416668,270.13874738506394L873.9811961111111,271.0681007859054L876.8495386805556,269.45503179259475" style="fill: none;" fill="none"></path></g><g><path stroke="rgb(51, 187, 238)" stroke-width="2px" d="M148.29052604166668,-11.732198249232514L151.66013236111112,5.6860228166547L155.05758666666668,21.336651685611905L158.45504097222224,34.49734363130961L161.76895131944448,45.066107833532364L165.1385576388889,54.36593446723083L168.45246798611115,61.34212961361163L171.8499222916667,67.48847419060357L175.21952861111112,72.78313314256827L178.61698291666667,77.89051229340876L181.93089326388892,82.31222496168465L185.16125965277777,87.54881763350147L188.53086597222224,92.66700622631957L191.81692833333335,97.57426896048635L195.21438263888888,102.38856802642488L198.6118369444445,107.42647401589512L201.92574729166668,111.1535464808645L205.18396166666668,114.67091644894143L208.49787201388892,118.96084084188676L211.89532631944448,122.50233032507084L215.29278062500003,125.8600959123937L218.6902349305556,130.890305531754L222.11553722222223,134.59378244181235L225.4851435416667,139.14165054025878L228.7990538888889,142.742578146509L232.16866020833334,146.33542028835546L235.5104185416667,149.72135236057832L238.88002486111114,152.61761948124786L242.2774791666667,155.6197367068798L246.31543715277783,158.61607642308007L249.65719548611114,162.3243733540591L252.88756187500002,165.78846395776353L256.20147222222226,168.69539018485168L259.51538256944445,172.77174815126835L262.8014449305556,174.4383217097575L265.64193951388893,178.79234420583006L268.9836978472223,182.71771611426553L272.3811521527778,184.47923105068386L275.4165826388889,186.72277315663962L278.7861889583333,188.80037281977806L282.1836432638889,190.38040153169203L285.4975536111112,192.85338738295522L288.75576798611115,195.10075465196564L292.2089182638889,197.43715210938427L295.60637256944443,201.11393683066385L298.9759788888889,202.8689578928037L301.92786541666675,204.0522763652665L304.93544791666665,205.6239706402288L308.3329022222223,207.76263441083142L311.6189645833333,210.62758218055217L314.96072291666667,213.51601617986543L318.3303292361111,216.57269264134518L321.6442395833334,218.4679479106063L325.0416938888889,220.6097837152358L328.3834522222222,222.1887410354268L331.8087545138889,223.43577519060509L335.1505128472223,224.55271188958147L338.5479671527778,225.70836201719354L341.9175734722223,227.64322719904638L345.3707237500001,229.63513491965196L348.7124820833333,230.5387863746013L351.5808246527778,231.5744778549252L354.95043097222225,233.9195816180454L358.2364933333334,235.410929203284L361.6060996527778,236.63130973422238L364.9757059722223,238.20997383807892L368.3453122916667,240.44046905577488L371.687070625,241.57392099634424L375.3630047916667,243.62004621876076L378.6490671527778,243.69998221428875L381.6288016666667,246.52495530828557L384.9427120138889,248.17144043198067L387.8945985416667,249.33275588636386L391.2642048611111,249.6606620260593L394.2439393750001,250.50680335555435L397.5578497222222,251.6624091364296L400.9553040277778,254.3459541191498L404.1578224305556,255.85812060261517L407.02616499999993,256.562681151776L410.0058995138889,256.71746102004727L413.0134820138889,257.2051884933935L416.1603044444445,259.9624517324345L419.5020627777778,260.7567115523086L422.59318923611113,260.3888219431781L425.6843156944445,262.73491281824624L429.08177,262.83229260606527L431.9501125694445,265.65324784239766L435.37541486111115,267.3479139927834L438.96780506944447,269.4245207792237L442.3931073611111,269.883796114581L445.5399297916667,271.1663809377807L448.93738409722226,269.11084534025196L452.02851055555556,269.75262854531155L454.9803970833334,270.4428668245616L457.76519569444446,270.0559268063699L460.49429833333335,271.72426595402413L463.86390465277776,273.1037187804397L467.2335109722222,273.83866891186L470.18539749999997,274.1579491602045L473.2486759722223,274.72227828627507L476.61828229166673,275.3644904123713L479.9321926388889,276.4277983834811L483.35749493055556,275.95448549060535L486.3093814583334,277.9930695774552L489.73468375000004,278.4546088744639L492.68657027777783,279.5287119131945L496.1118725694445,278.3211307889363L499.0637590972223,280.82184414321176L502.48906138888896,282.521942606805L506.5827153472223,281.836982960247L509.39536194444446,282.93638893904017L512.3472484722222,283.3230810936792L515.3269829861111,285.0645921556909L518.6965893055557,286.1917938360258L522.1218915972222,288.26104415979376L525.4914979166667,288.51644061521523L528.4990804166667,289.1173640367055L531.4788149305557,289.1287708719854L534.4307014583333,288.14976940735744L537.4104359722222,287.8057995517696L540.1952345833333,288.968887281056L543.1471211111111,289.66340137732465L546.2382475694445,290.82202359649716L549.5800059027779,291.9361068183118L552.9496122222223,292.91954812337275L556.2635225694444,291.6606773704335L559.1040171527778,293.0229017835882L562.4179275000001,293.64381463795206L565.3698140277778,292.4119492839789L568.3773965277778,294.6165760252911L571.7191548611112,293.1001281402645L574.671041388889,294.02629019903253L577.6507759027778,294.6713447763322L580.5191184722223,295.11560782497764L583.4431570138889,296.5389188536061L586.7570673611111,297.30761858102574L589.6254099305556,298.2292104226677L592.9671682638889,300.12375835040893L596.3367745833334,299.6733959336092L599.2051171527778,301.80995859021004L602.6025714583334,301.3205175307805L605.498762013889,299.9380646922921L609.258240138889,300.54435835779685L612.1544306944445,302.546857555855L615.524037013889,302.7671212640014L618.5037715277778,301.8503098113729L621.4278100694445,302.53011587486736L624.3518486111111,303.21820585266397L627.3315831250001,304.36620663434223L630.6733414583334,303.67286384430076L633.6809239583334,302.89127505701424L636.6606584722222,304.9284234950981L640.0581127777778,305.4893860473828L643.0099993055557,303.33738921014054L645.9340378472222,304.98792109616573L648.8580763888889,305.03578285838523L651.865658888889,303.66502192297787L654.7340014583333,306.2588818369206L658.0479118055556,305.12948255270953L660.9719503472223,306.40182075475934L663.9516848611112,308.2224369824163L667.2377472222222,307.43645349793445L670.2174817361112,304.73819760388113L673.1136722916667,305.5213116946747L675.954166875,309.9865794539495L679.3237731944446,310.2349867081668L682.3035077083334,310.30321268006884L685.7845059722223,310.2502838904117L688.7363925000001,310.2020521993398L691.7161270138889,312.0115836777407L694.6123175694445,309.1639872876816L697.5920520833334,308.36523332098636L700.5439386111111,311.7951816774238L703.9135449305556,308.6396075486949L706.8932794444445,311.30789182185003L709.7894700000002,311.28009080818043L712.6578125694446,312.4201762399633L715.6375470833334,311.78188265094514L718.5894336111112,311.16369342216893L721.569168125,312.33038360379703L724.576750625,314.325469246522L727.9463569444446,314.0714108141072L730.8425475,315.4237975660618L734.1564578472222,316.8398137661866L737.4982161805556,315.0150849752031L740.4779506944445,317.01094083383094L744.5159086805555,318.5573832773829L747.9133629861111,318.00397648884274L750.9487934722223,318.7729319753936L754.0677679166668,316.9384032535454L757.0753504166667,318.89378672953416L760.5563486805556,319.0404410454306L763.5360831944445,319.7376018579407L766.6272096527779,322.6434711516689L769.9968159722223,319.9656083933416L772.8930065277779,319.5404775488659L775.8170450694445,320.7741444931541L778.7967795833334,320.10209032623084L781.8600580555557,321.8070182537154L784.7840965972224,323.9182624318413L788.1815509027779,324.1357439287006L791.2448293750001,324.16940228847517L794.447347777778,323.6463139099351L797.3435383333334,326.20218110337686L800.6852966666667,327.3272950936929L803.6093352083334,327.6992752997112L806.4219818055556,324.2649887011411L809.513108263889,323.86184841259666L812.4092988194443,324.48504449388844L815.8346011111112,324.0740582416997L819.3155993749999,326.3274175805178L822.4902697916667,326.11870364611735L825.3307643750001,328.1341094475625L828.6725227083334,326.0906634987377L831.59656125,326.9432487881769L834.5484477777777,327.56666677659L837.556030277778,329.26438499370363L840.8699406249999,330.87407898064515L844.156002986111,329.1280367937194L847.1914334722222,328.44801056015103L850.14332,330.00603611247305L853.5129263194445,331.9925818382296L857.1053165277779,333.351795874069L860.4749228472223,331.6040308044817L863.5660493055557,333.0034213761369L866.5736318055556,332.5866213806966L869.441974375,334.0196027788051L873.6470202777779,334.6180223552473L876.6267547916668,335.00739062425595L879.467249375,332.39003855856805L882.4469838888889,333.70408848362985L885.3988704166669,332.5422966957643L888.2672129861113,335.05607656209713L891.74821125,331.83826689122697L894.727945763889,334.8543747811573L898.0697040972224,337.2607652514611L901.4950063888889,334.43518303109954L904.4468929166668,334.8521159409764L907.4266274305558,336.6714543022L910.3785139583334,336.01527958445024L913.4139444444446,339.06416298093615L916.8113987500001,338.0533445698837L919.81898125,334.8490318107583L922.7987157638889,335.89456146049366L925.7784502777779,337.9415168963288L928.6746408333332,338.78675947033423L931.570831388889,338.1571188603992L934.5505659027779,339.40303405732845L937.5303004166668,339.83622099014394L940.5100349305558,339.90403861945526L943.3783775000002,339.12605466674023L946.413807986111,338.78267475844433L949.3099985416668,337.45819695521004L952.2340370833334,339.37988872366316L955.0188356944444,339.8424420810258L957.9428742361112,338.36218073704936" style="fill: none;" fill="none"></path></g></g></g></g><g opacity="0.2"><g><g><g><path stroke="rgb(0, 153, 136)" stroke-width="2px" d="M146.09053513888887,-13.143657343728165L149.46014145833337,1.8363774844578693L152.85759576388892,17.62427510534019L156.25505006944448,30.057388135365144L160.40439999999998,40.917855603354354L163.6347663888889,49.90719907624387L167.06006868055556,57.039607354572865L170.45752298611112,61.14870967183799L173.8271293055556,66.41423133441386L177.1688876388889,71.7303447382791L180.53849395833336,78.15966905866355L183.9081002777778,83.64521343367443L187.27770659722225,87.06965797288083L190.61946493055555,93.41160239492149L193.96122326388888,97.07655031340465L197.3029815972222,100.20258062226434L200.67258791666669,105.0188758713859L203.9586502777778,111.29199498040337L207.35610458333335,114.54996187346325L210.67001493055554,119.69401199477062L213.92822930555562,121.98405872072496L217.38137958333337,126.2293992042542L220.7231379166667,126.47137924603057L224.12059222222226,130.76121221269884L227.37880659722222,135.0433408532824L230.6927169444445,137.7363238334656L233.95093131944444,141.82796301160545L237.40408159722224,143.5876310893468L240.69014395833335,145.59364499364585L244.0875982638889,148.1325414521354L247.45720458333338,151.75517977987022L250.77111493055557,153.10728900773185L254.0571772916667,154.44463161059792L257.45463159722226,158.92649490492687L260.6849979861111,160.29651669093542L264.05460430555553,164.6782879488809L267.3963626388889,165.41565615790233L270.76596895833336,166.8404428618295L274.19127125,166.70587396621707L277.19885375000007,172.71062571661815L280.5127640972222,175.28220135825023L284.6621140277778,176.42821986334667L287.97602437500007,175.5300880500249L290.8722149305556,178.5417733192444L294.1025813194445,180.49231607573375L297.4721876388889,183.3730278015137L300.9531859027778,184.96763069289074L304.35064020833335,186.41906152452745L307.6923985416667,187.74292155674527L311.08985284722223,192.65471834795818L314.4037631944445,193.0529036011015L317.7455215277778,196.3791179827282L321.03158388888886,195.3898183107376L323.9556224305556,197.93828097411566L327.38092472222223,198.45989595140733L330.66698708333337,204.59253951481412L333.98089743055556,203.06974736281805L336.98847993055557,204.51726182869504L339.9682144444445,206.06608818258562L343.4213647222223,207.5506476163864L346.79097104166675,209.3403946672167L350.13272937500005,209.43756547995977L353.5301836805556,211.44987125056133L357.01118194444444,213.10094043186734L360.29724430555564,212.8626199449812L363.22128284722226,215.695372240884L366.59088916666667,216.22417792252133L370.0997354166667,218.36004182270597L373.55288569444446,222.02482923439572L377.00603597222226,223.97980197838376L380.48703423611107,225.086560521807L384.0237284722222,225.04421882969993L387.1148549305556,227.55284370694847L390.51230923611115,228.45851933956146L394.04900347222224,229.19283791950772L397.5300017361111,231.5153391190938L401.011,234.10627188001365L404.5755422222223,232.48733615875244L407.72236465277774,235.83881430966514L411.8995625694445,238.34162884099143L415.1856249305556,237.47922583988736L418.1375114583334,238.32959083148413L421.0893979861111,238.52319412572044L424.8767240972223,240.2387228352683L428.2184824305556,241.24458680834093L431.50454479166666,240.53001056398668L434.48427930555556,242.47272058895658L437.7981896527778,243.76171854564123L441.1677959722222,241.48762619495392L444.1196825,245.0488546235221L447.4892888194444,244.43690642288755L450.4133273611111,246.85728466510773L453.7829336805556,247.43064703260154L457.12469201388893,249.61241587570737L460.46645034722223,247.30358985492163L463.3904888888889,251.43028371674674L466.81579118055555,250.80010194437847L469.7676777083334,254.66263372557506L473.1651320138889,254.96178628717155L476.451194375,256.39848259517123L479.7929527083333,255.5999612978527L482.68914326388887,255.91949822221488L485.6131818055556,258.0355555840901L488.9270921527778,260.398889711925L492.24100250000004,258.32552715710233L495.248585,258.89558308465143L498.0612315972222,261.54853567055295L501.23590201388896,263.74879489626204L504.4662684027779,265.17271486350467L507.8358747222223,263.97796649592266L510.8156092361111,265.79201427527835L514.2130635416667,263.73948550224304L517.1092540972222,262.9434360095433L520.0889886111112,266.77556780406405L523.5142909027778,268.263497880527L526.9117452083334,269.4206555570875L530.2813515277778,274.94664764404297L533.5674138888888,271.4684975317547L536.4914524305556,271.1840152910778L540.1673865972223,269.05226036480497L543.0635771527778,271.65693250724246L545.9876156944445,278.09640085697174L549.3015260416668,277.6509624038424L552.2534125694444,279.40986004897525L555.5951709027778,276.60128007616316L558.5470574305556,280.8905031170164L561.8888157638888,275.0906222377505L564.8128543055556,279.42436986310145L567.6255009027778,280.9520093202591L570.911563263889,280.3488247905459L573.8356018055556,281.35892614296506L577.177360138889,280.86661970615387L580.1570946527778,284.81062473569597L583.5545489583334,282.6417285374233L586.4785875,286.57305353028437L589.8481938194445,282.5087005070278L592.8000803472222,286.42121410369873L595.6962709027778,285.0303906372615L598.5367654861111,285.862682563918L601.3772600694444,286.48426117215837L604.3012986111112,293.1496267829623L607.6987529166666,289.14986169338226L610.5113995138888,283.3054241282599L613.4632860416667,291.9165172917502L616.2759326388889,288.71366843155454L619.1999711805557,293.6559615135193L622.541729513889,294.8474997452327L625.8556398611111,291.4821217060089L628.6682864583333,296.01492985657285L632.0378927777778,295.5236506632396L635.7138269444445,294.2618425573622L638.6378654861112,299.83271234376093L641.9239278472223,298.28475272655487L644.9315103472223,296.37754680429185L647.7998529166667,296.47982173306605L650.7795874305556,301.5591555152621L654.0378018055557,297.83151364326477L656.9339923611111,298.9675486258098L659.8858788888889,299.67104990141735L662.8377654166667,299.7683170182364L665.7061079861112,302.95466578006744L669.0200183333334,296.0622151579176L671.8883609027778,296.47157168388367L674.7567034722223,297.0034269945962L677.5415020833334,299.9290485211781L680.3819966666667,304.33528101444244L683.7516029861112,300.41101832049236L686.7313375000001,305.00331028870175L690.1566397916667,301.57360112667084L693.1085263194445,300.6174621582031L696.0604128472222,304.54448556900024L699.0122993750001,305.90949954305376L702.4097536805557,306.1889097690582L705.8072079861112,302.7220914363861L708.7869425,306.07947623729706L711.766677013889,303.2113803454808L714.7464115277778,307.86084483351027L718.032473888889,304.4396425315312L720.9286644444444,308.24866134779796L724.2425747916668,302.35067871638705L727.2223093055555,302.638531599726L730.2855877777779,309.55152709143505L733.6551940972223,309.5476107256753L736.6627765972223,310.2998097624098L740.0045349305556,309.6647164821625L742.9285734722223,310.2669379711151L745.8804600000001,302.92988353116175L748.7766505555555,314.1575905425208L752.1741048611111,308.7126864876066L755.1259913888889,308.5288099050522L758.1335738888889,312.65364188807354L761.2525483333334,315.4634738138744L764.7335465972222,310.280452643122L767.4904972222223,316.9794283764703L771.6119991666668,316.54862814290186L774.6752776388889,314.2562701191221L777.5714681944445,310.97807937009L780.439810763889,313.9207146167755L783.3081533333334,314.5583118030003L786.204343888889,313.72094786167145L789.1005344444444,314.9751479455403L792.247356875,311.9343788453511L795.1992434027778,318.7389680487769L798.5688497222222,315.303737453052L801.5485842361112,311.1457126651492L804.4447747916666,317.62232228687833L807.2852693750001,322.5867011036192L810.515635763889,316.82925822053636L813.4675222916667,319.92116478511264L816.3637128472224,318.92140007019043L819.2320554166668,323.5442846332278L822.4624218055557,318.3190822771617L825.3864603472223,323.29126172406336L828.3661948611112,320.9585843937738L831.3459293750002,328.7462135042463L834.7155356944445,324.157388482775L837.7231181944445,323.8709159578596L840.6750047222223,319.7947175332478L843.6825872222222,325.47797417640686L846.9129536111112,317.93107315472196L849.7812961805556,321.24361235754833L852.7610306944443,322.62458070686887L856.5762047916668,327.6784260102681L859.4445473611112,328.4651019062315L862.3407379166667,323.6899605989456L865.2926244444444,324.95510724612643L868.2445109722224,323.02976405620575L871.1128535416668,322.35239328656877L873.9811961111111,327.7772339923041L876.8495386805556,325.3429237604141" style="fill: none;" fill="none"></path></g><g><path stroke="rgb(238, 51, 119)" stroke-width="2px" d="M183.93594826388892,-1.5267534596578698L187.27770659722225,0.9185996396201536L190.61946493055555,7.356848137719338L193.96122326388888,4.2283781255995185L197.3029815972222,5.312441008431619L200.67258791666669,17.173507826668924L203.98649826388893,22.123794146946565L207.35610458333335,34.05432830538072L210.69786291666668,37.091951472418685L213.95607729166667,29.39282580784392L217.38137958333337,35.20959200177879L220.7231379166667,36.611650943756146L224.12059222222226,43.825725078582806L227.40665458333334,42.58821770123076L230.6927169444445,53.05120614596781L233.97877930555558,60.39554759434294L237.40408159722224,40.49713519641337L240.69014395833335,62.801159211567494L244.11544625000002,57.600289685385604L247.45720458333338,61.662973437990516L250.77111493055557,59.78042135919847L254.0850252777778,62.402717147554725L257.45463159722226,71.85419178009037L260.6849979861111,72.89665130206522L264.05460430555553,74.39295983314518L267.42421062499994,65.42075848579411L270.76596895833336,82.20745778083806L274.19127125,79.82110697882518L277.19885375000007,87.33943779127941L280.5127640972222,86.99216529301238L284.6899620138889,86.87717822619852L288.0038723611112,86.13364655630932L290.90006291666674,86.16709617206034L294.13042930555554,87.36139512062077L297.50003562500007,96.0859665870667L300.9531859027778,98.5862130096981L304.35064020833335,90.19600929532737L307.6923985416667,95.95236073221483L311.08985284722223,99.52434311594286L314.4037631944445,103.40263666425437L317.7455215277778,116.51501444407877L321.03158388888886,104.88982840946746L323.9556224305556,108.45140995298118L327.38092472222223,115.99285374368944L330.6948350694445,116.77503544943676L334.00874541666667,117.05996710913524L336.98847993055557,111.30457871300835L339.9960624305556,120.895886863981L343.4213647222223,128.55251032965526L346.79097104166675,120.66392244611473L350.16057736111117,116.97566894122538L353.5301836805556,122.58576658793864L357.01118194444444,119.54634574481425L360.29724430555564,125.79256391525273L363.24913083333337,132.12532734870913L366.59088916666667,116.03644738878526L370.0997354166667,140.4901709897178L373.55288569444446,138.30670077460155L377.00603597222226,136.48006926264085L380.48703423611107,132.1709754807609L384.05157645833333,138.45167051042833L387.1148549305556,133.67672181129458L390.54015722222226,149.0047995703561L394.04900347222224,143.20703738076347L397.5300017361111,145.15032523018974L401.011,147.83143070765908L404.5755422222223,149.46924202782768L407.7502126388889,158.29666624750413L411.8995625694445,151.354426418032L415.1856249305556,156.31562720026292L418.1375114583334,155.66069528034757L421.11724597222224,167.88437904630393L424.8767240972223,153.06587825502672L428.2184824305556,157.75896848951072L431.50454479166666,160.12702151707242L434.48427930555556,168.36410175051012L437.8260376388889,158.25878664425443L441.19564395833333,163.27584379059928L444.1196825,166.62106217656822L447.4892888194444,169.6049476691655L450.4133273611111,159.85531561715263L453.7829336805556,163.75274157524112L457.15254000000004,170.57171218735832L460.49429833333335,163.8229793480465L463.418336875,176.54442678179063L466.81579118055555,174.28372069767545L469.7676777083334,179.19593480655126L473.1651320138889,170.72220335687913L476.47904236111117,183.8555112225669L479.7929527083333,182.5285052571978L482.71699125,178.78458799634666L485.6131818055556,172.61489946501598L488.9549401388889,176.16235641070776L492.24100250000004,182.31946120943346L495.248585,187.7339973790305L498.0612315972222,189.532829114369L501.2637500000001,191.80448176179618L504.4662684027779,184.31231355667117L507.8358747222223,203.80136942863464L510.8434572222223,180.51806136540006L514.2130635416667,183.32693025044034L517.1092540972222,190.51856553554535L520.0889886111112,195.28619512489865L523.5142909027778,198.833395259721L526.9117452083334,202.75085246562958L530.2813515277778,186.47215717179435L533.5952618750001,197.94547167846136L536.5193004166667,198.48827355248594L540.1952345833333,194.10441570622586L543.0914251388889,189.93557276044578L546.0154636805555,195.9803228037698L549.3015260416668,208.78815499373846L552.2534125694444,202.99434127126426L555.6230188888889,204.14328100000114L558.5470574305556,202.7536131824766L561.8888157638888,208.59365286145896L564.8128543055556,203.78104926858634L567.6255009027778,215.90204078810558L570.911563263889,217.14134584154405L573.8356018055556,199.68055011544914L577.177360138889,220.7007444926671L580.184942638889,219.31643760204315L583.5545489583334,211.2809539011547L586.5064354861112,229.45074023519248L589.8203458333334,209.64609590598516L592.8000803472222,223.00308603899822L595.7241188888889,228.40635463169644L598.5367654861111,213.02919389520378L601.3772600694444,213.31316251414165L604.3012986111112,220.34846418244499L607.6987529166666,217.46200631346025L610.5392475000001,216.61713065419883L613.4632860416667,224.7933146102088L616.2759326388889,220.63718380246848L619.1999711805557,218.67582288810186L622.541729513889,208.9364632708686L625.8834878472223,222.69760950974057L628.6682864583333,239.638620035989L632.0378927777778,228.0718584741865L635.7138269444445,219.87339617524833L638.6378654861112,230.86332842281888L641.9517758333334,231.41515077863426L644.9315103472223,228.23849662712644L647.7998529166667,217.08722295079917L650.7795874305556,232.14763958113537L654.0656497916667,233.8655758925847L656.9618403472223,223.83017754554749L659.8858788888889,219.5338922057833L662.8377654166667,241.83666426794872L665.7339559722224,215.63039909090318L669.0200183333334,235.31906121117729L671.9162088888888,220.2450978074755L674.7845514583335,233.87122573171348L677.5415020833334,238.5014936072486L680.3819966666667,247.58479775701255L683.7794509722222,243.2484178202493L686.7313375000001,245.4189190864563L690.1566397916667,242.44986442157202L693.1085263194445,242.41724944114685L696.0604128472222,242.13068061215537L699.0122993750001,235.64424797466825L702.4376016666668,234.9507623229708L705.8072079861112,227.18094946656913L708.8147904861112,257.0297558137349L711.766677013889,241.44512399605344L714.7464115277778,242.54520545686998L718.060321875,254.9711598839079L720.9286644444444,242.3421322618212L724.2425747916668,246.8552622795105L727.2223093055555,243.32542897973747L730.2855877777779,240.1419693401882L733.6551940972223,244.031690972192L736.6627765972223,248.93652176856995L740.0045349305556,260.84785931450983L742.9564214583334,239.57046885149822L745.8804600000001,236.57554049151287L748.7766505555555,257.444633773395L752.1741048611111,247.68106973171234L755.1259913888889,238.07091808319092L758.1335738888889,235.3432977369854L761.2525483333334,250.00344252586365L764.7056986111112,258.59132640702387L767.5183452083334,247.08847865036557L771.6398471527779,250.66758753572196L774.6752776388889,238.85159102508L777.5714681944445,262.5465990134648L780.4676587500002,256.7933935097286L783.3081533333334,257.6715582779476L786.2321918749999,248.99064465931485L789.1005344444444,250.680877498218L792.2752048611111,252.53408893517087L795.1992434027778,248.75569481509075L798.5688497222222,262.57693479742323L801.5485842361112,254.3858558109829L804.4447747916666,252.2286766086306L807.313117361111,256.54290660790036L810.5434837500001,250.4712556259973L813.4675222916667,260.6354767254421L816.3637128472224,260.3500635453633L819.2320554166668,261.1862076350621L822.4624218055557,244.6921443258013L825.3864603472223,265.22070639474055L828.3661948611112,256.3719989742552L831.3737773611111,269.2553656612124L834.7155356944445,258.7115138939449L837.7231181944445,267.77915258067L840.6750047222223,265.8657831975392L843.6825872222222,262.8965359245028L846.9129536111112,268.53953746386935L849.8091441666667,264.8667247125081L852.7610306944443,271.769704580307L856.5762047916668,253.1093773841858L859.4445473611112,279.4804509367262L862.3407379166667,269.0706223419735L865.2926244444444,262.36070004531314L868.2445109722224,267.2644714968545L871.1128535416668,275.2643226896014L873.9811961111111,272.4621308871678L876.8495386805556,267.0354283026287" style="fill: none;" fill="none"></path></g><g><path stroke="rgb(51, 187, 238)" stroke-width="2px" d="M144.94876770833332,-0.36288659913196897L148.29052604166668,16.698985542569872L151.66013236111112,31.801069736480756L155.05758666666668,44.80597216742382L158.45504097222224,54.23504005159654L161.76895131944448,60.91764409201488L165.1385576388889,68.31482437678751L168.45246798611115,71.80603974206113L171.8499222916667,76.70778880800523L175.21952861111112,80.7250170367105L178.61698291666667,85.55152051789426L181.93089326388892,88.94476253645763L185.16125965277777,95.40368430955071L188.53086597222224,100.34427601950512L191.81692833333335,104.93515552793235L195.21438263888888,109.6100121906826L198.6118369444445,114.98333021572661L201.92574729166668,116.74415394238066L205.18396166666668,119.9469707012177L208.49787201388892,125.39572691917424L211.89532631944448,127.81456429617748L215.29278062500003,130.89674414907188L218.6902349305556,138.43561983108523L222.11553722222223,140.1489977496011L225.4851435416667,145.96345264571056L228.7990538888889,148.14396953582767L232.16866020833334,151.72468348911832L235.5104185416667,154.80025046212333L238.88002486111114,156.96202015876773L242.2774791666667,160.12291254316062L246.31543715277783,163.11058599608288L249.65719548611114,167.88681874956407L252.88756187500002,170.9845998627799L256.20147222222226,173.0557795252119L259.51538256944445,178.88628510066442L262.8014449305556,176.93818204743522L265.64193951388893,185.32337794985094L268.9836978472223,188.605773976871L272.3811521527778,187.12150345529832L275.4165826388889,190.08808631556377L278.7861889583333,191.9167723144804L282.1836432638889,192.75044459956035L285.4975536111112,196.56286615984783L288.75576798611115,198.4718055554799L292.2089182638889,200.94174829551153L295.60637256944443,206.6291139125824L298.9759788888889,205.50148948601316L301.92786541666675,205.8272540739605L304.93544791666665,207.9815120526723L308.3329022222223,210.97063006673545L311.6189645833333,214.92500383513317L314.96072291666667,217.8486671788352L318.3303292361111,221.15770733356476L321.6442395833334,221.31083081449785L325.0416938888889,223.82253742218018L328.3834522222222,224.5571770157133L331.8087545138889,225.30632642337255L335.1505128472223,226.22811693804607L338.5479671527778,227.44183720861167L341.9175734722223,230.54552497182578L345.3707237500001,232.62299650056022L348.7124820833333,231.89426355702537L351.5808246527778,233.12801507541113L354.95043097222225,237.43723726272583L358.2364933333334,237.64795058114188L361.6060996527778,238.46188053062986L364.9757059722223,240.5779699938638L368.3453122916667,243.78621188231878L371.687070625,243.27409890719824L375.3630047916667,246.68923405238561L378.6490671527778,243.81988620758057L381.6288016666667,250.76241494928092L384.9427120138889,250.6411681175232L387.8945985416667,251.0747290679387L391.2642048611111,250.15252123560228L394.2439393750001,251.77601534979686L397.5578497222222,253.39581780774253L400.9553040277778,258.3712715932301L404.1578224305556,258.12637032781333L407.02616499999993,257.6195219755173L410.0058995138889,256.9496308224542L413.0134820138889,257.93677970341275L416.1603044444445,264.0983465909958L419.5020627777778,261.94810128211975L422.59318923611113,259.83698752948214L425.6843156944445,266.2540491308485L429.08177,262.97836228779386L431.9501125694445,269.88468069689617L435.37541486111115,269.88991321836204L438.96780506944447,272.5394309588841L442.3931073611111,270.5727091176169L445.5399297916667,273.0902581725802L448.93738409722226,266.02754194395885L452.02851055555556,270.71530335290095L454.9803970833334,271.47822424343656L457.76519569444446,269.47551677908217L460.49429833333335,274.2267746755055L463.86390465277776,275.17289802006314L467.2335109722222,274.9410941089903L470.18539749999997,274.6368695327214L473.2486759722223,275.5687719753811L476.61828229166673,276.32780860151564L479.9321926388889,278.0227603401457L483.35749493055556,275.24451615129203L486.3093814583334,281.0509457077299L489.73468375000004,279.1469178199768L492.68657027777783,281.1398664712906L496.1118725694445,276.50975910254886L499.0637590972223,284.5729141746249L502.48906138888896,285.07209030219485L506.5827153472223,280.80954349040985L509.39536194444446,284.58549790722986L512.3472484722222,283.9031193256378L515.3269829861111,287.67685874870847L518.6965893055557,287.88259635652815L522.1218915972222,291.3649196454457L525.4914979166667,288.8995352983475L528.4990804166667,290.018749168941L531.4788149305557,289.1458811249052L534.4307014583333,286.68126721041546L537.4104359722222,287.2898447683879L540.1952345833333,290.7135188749858L543.1471211111111,290.70517252172743L546.2382475694445,292.5599569252559L549.5800059027779,293.60723165103366L552.9496122222223,294.3947100809642L556.2635225694444,289.7723712410246L559.1040171527778,295.0662384033203L562.4179275000001,294.57518391949793L565.3698140277778,290.5641512530191L568.3773965277778,297.92351613725936L571.7191548611112,290.82545631272455L574.671041388889,295.4155332871846L577.6507759027778,295.63892664228166L580.5191184722223,295.782002397946L583.4431570138889,298.6738853965487L586.7570673611111,298.4606681721551L589.6254099305556,299.61159818513056L592.9671682638889,302.96558024202074L596.3367745833334,298.99785230840956L599.2051171527778,305.0148025751114L602.6025714583334,300.5863559416362L605.498762013889,297.86438543455944L609.258240138889,301.45379885605405L612.1544306944445,305.55060635294234L615.524037013889,303.09751682622095L618.5037715277778,300.47509263242995L621.4278100694445,303.5498249701091L624.3518486111111,304.2503408193588L627.3315831250001,306.0882078068597L630.6733414583334,302.63284965923856L633.6809239583334,301.71889187608446L636.6606584722222,307.98414615222384L640.0581127777778,306.3308298758098L643.0099993055557,300.10939395427704L645.9340378472222,307.4637189252036L648.8580763888889,305.10757550171445L651.865658888889,301.60888051986694L654.7340014583333,310.1496717078345L658.0479118055556,303.43538362639293L660.9719503472223,308.3103280578341L663.9516848611112,310.9533613239016L667.2377472222222,306.2574782712119L670.2174817361112,300.69081376280104L673.1136722916667,306.69598283086503L675.954166875,316.68448109286174L679.3237731944446,310.6075975894928L682.3035077083334,310.40555163792203L685.7845059722223,310.17089070592607L688.7363925000001,310.12970466273174L691.7161270138889,314.72588089534213L694.6123175694445,304.8925927025931L697.5920520833334,307.1671023709433L700.5439386111111,316.94010421207975L703.9135449305556,303.90624635560175L706.8932794444445,315.31031823158264L709.7894700000002,311.2383892876761L712.6578125694446,314.1303043876376L715.6375470833334,310.8244422674179L718.5894336111112,310.23640957900454L721.569168125,314.08041887623926L724.576750625,317.31809771060944L727.9463569444446,313.69032316548487L730.8425475,317.4523776939937L734.1564578472222,318.96383806637357L737.4982161805556,312.2779917887279L740.4779506944445,320.00472462177277L744.5159086805555,320.8770469427109L747.9133629861111,317.17386630603244L750.9487934722223,319.92636520521984L754.0677679166668,314.1866101707731L757.0753504166667,321.82686194351743L760.5563486805556,319.26042251927515L763.5360831944445,320.78334307670593L766.6272096527779,327.0022750922612L769.9968159722223,315.94881425585066L772.8930065277779,318.90278128215243L775.8170450694445,322.6246449095862L778.7967795833334,319.094009075846L781.8600580555557,324.36441014494216L784.7840965972224,327.0851286990302L788.1815509027779,324.4619661739894L791.2448293750001,324.219889828137L794.447347777778,322.86168134212494L797.3435383333334,330.03598189353943L800.6852966666667,329.014966079167L803.6093352083334,328.2572456087385L806.4219818055556,319.11355880328585L809.513108263889,323.25713797977994L812.4092988194443,325.4198386158262L815.8346011111112,323.4575788634164L819.3155993749999,329.7074565887451L822.4902697916667,325.80563274451663L825.3307643750001,331.15721814973017L828.6725227083334,323.0254945755005L831.59656125,328.2221267223358L834.5484477777777,328.50179375920976L837.556030277778,331.8109623193741L840.8699406249999,333.2886199610574L844.156002986111,326.5089735133307L847.1914334722222,327.42797120979856L850.14332,332.3430744409561L853.5129263194445,334.9724004268646L857.1053165277779,335.3906169278281L860.4749228472223,328.9823832001005L863.5660493055557,335.1025072336197L866.5736318055556,331.9614213875362L869.441974375,336.16907487596785L873.6470202777779,335.51565171991075L876.6267547916668,335.59144302776883L879.467249375,328.46401046003615L882.4469838888889,335.67516337122237L885.3988704166669,330.7996090139662L888.2672129861113,338.82674636159624L891.74821125,327.0115523849215L894.727945763889,339.3785366160529L898.0697040972224,340.8703509569168L901.4950063888889,330.1968097005572L904.4468929166668,335.4775153057916L907.4266274305558,339.4004618440356L910.3785139583334,335.0310175078256L913.4139444444446,343.6374880756651L916.8113987500001,336.53711695330486L919.81898125,330.0425626720701L922.7987157638889,337.46285593509674L925.7784502777779,341.0119500500815L928.6746408333332,340.05462333134244L931.570831388889,337.2126579454967L934.5505659027779,341.27190685272217L937.5303004166668,340.48600138936723L940.5100349305558,340.0057650634221L943.3783775000002,337.95907873766765L946.413807986111,338.2676048960005L949.3099985416668,335.4714802503586L952.2340370833334,342.2624263763428L955.0188356944444,340.5362721170698L957.9428742361112,336.1417887210846" style="fill: none;" fill="none"></path></g></g></g></g></g></g><g transform="translate(51, 377)" clip-path="url(#clip_1)"><clipPath id="clip_1"><rect width="1002" height="22"></rect></clipPath><g><g><line x1="0" y1="0" x2="0" y2="5" style="visibility: inherit;" fill="rgb(0, 0, 0)" stroke="rgb(204, 204, 204)" stroke-width="1px"></line><line x1="100.25275" y1="0" x2="100.25275" y2="5" style="visibility: inherit;" fill="rgb(0, 0, 0)" stroke="rgb(204, 204, 204)" stroke-width="1px"></line><line x1="200.5055" y1="0" x2="200.5055" y2="5" style="visibility: inherit;" fill="rgb(0, 0, 0)" stroke="rgb(204, 204, 204)" stroke-width="1px"></line><line x1="300.75825000000003" y1="0" x2="300.75825000000003" y2="5" style="visibility: inherit;" fill="rgb(0, 0, 0)" stroke="rgb(204, 204, 204)" stroke-width="1px"></line><line x1="401.011" y1="0" x2="401.011" y2="5" style="visibility: inherit;" fill="rgb(0, 0, 0)" stroke="rgb(204, 204, 204)" stroke-width="1px"></line><line x1="501.2637500000001" y1="0" x2="501.2637500000001" y2="5" style="visibility: inherit;" fill="rgb(0, 0, 0)" stroke="rgb(204, 204, 204)" stroke-width="1px"></line><line x1="601.5165000000001" y1="0" x2="601.5165000000001" y2="5" style="visibility: inherit;" fill="rgb(0, 0, 0)" stroke="rgb(204, 204, 204)" stroke-width="1px"></line><line x1="701.76925" y1="0" x2="701.76925" y2="5" style="visibility: inherit;" fill="rgb(0, 0, 0)" stroke="rgb(204, 204, 204)" stroke-width="1px"></line><line x1="802.022" y1="0" x2="802.022" y2="5" style="visibility: inherit;" fill="rgb(0, 0, 0)" stroke="rgb(204, 204, 204)" stroke-width="1px"></line><line x1="902.2747500000002" y1="0" x2="902.2747500000002" y2="5" style="visibility: inherit;" fill="rgb(0, 0, 0)" stroke="rgb(204, 204, 204)" stroke-width="1px"></line><line x1="1002.5274999999999" y1="0" x2="1002.5274999999999" y2="5" style="visibility: inherit;" fill="rgb(0, 0, 0)" stroke="rgb(204, 204, 204)" stroke-width="1px"></line></g><g transform="translate(0, 8)"><text x="0" y="0" dx="0em" dy="0.95em" style="text-anchor: middle; visibility: hidden; font-family: Roboto, sans-serif; font-size: 12px; font-weight: 200;" fill="rgb(33, 33, 33)" stroke="none" stroke-width="1px">-0.001</text><text x="100.25275" y="0" dx="0em" dy="0.95em" style="text-anchor: middle; visibility: inherit; font-family: Roboto, sans-serif; font-size: 12px; font-weight: 200;" fill="rgb(33, 33, 33)" stroke="none" stroke-width="1px">0</text><text x="200.5055" y="0" dx="0em" dy="0.95em" style="text-anchor: middle; visibility: inherit; font-family: Roboto, sans-serif; font-size: 12px; font-weight: 200;" fill="rgb(33, 33, 33)" stroke="none" stroke-width="1px">0.001</text><text x="300.75825000000003" y="0" dx="0em" dy="0.95em" style="text-anchor: middle; visibility: inherit; font-family: Roboto, sans-serif; font-size: 12px; font-weight: 200;" fill="rgb(33, 33, 33)" stroke="none" stroke-width="1px">0.002</text><text x="401.011" y="0" dx="0em" dy="0.95em" style="text-anchor: middle; visibility: inherit; font-family: Roboto, sans-serif; font-size: 12px; font-weight: 200;" fill="rgb(33, 33, 33)" stroke="none" stroke-width="1px">0.003</text><text x="501.2637500000001" y="0" dx="0em" dy="0.95em" style="text-anchor: middle; visibility: inherit; font-family: Roboto, sans-serif; font-size: 12px; font-weight: 200;" fill="rgb(33, 33, 33)" stroke="none" stroke-width="1px">0.004</text><text x="601.5165000000001" y="0" dx="0em" dy="0.95em" style="text-anchor: middle; visibility: inherit; font-family: Roboto, sans-serif; font-size: 12px; font-weight: 200;" fill="rgb(33, 33, 33)" stroke="none" stroke-width="1px">0.005</text><text x="701.76925" y="0" dx="0em" dy="0.95em" style="text-anchor: middle; visibility: inherit; font-family: Roboto, sans-serif; font-size: 12px; font-weight: 200;" fill="rgb(33, 33, 33)" stroke="none" stroke-width="1px">0.006</text><text x="802.022" y="0" dx="0em" dy="0.95em" style="text-anchor: middle; visibility: inherit; font-family: Roboto, sans-serif; font-size: 12px; font-weight: 200;" fill="rgb(33, 33, 33)" stroke="none" stroke-width="1px">0.007</text><text x="902.2747500000002" y="0" dx="0em" dy="0.95em" style="text-anchor: middle; visibility: inherit; font-family: Roboto, sans-serif; font-size: 12px; font-weight: 200;" fill="rgb(33, 33, 33)" stroke="none" stroke-width="1px">0.008</text><text x="1002.5274999999999" y="0" dx="0em" dy="0.95em" style="text-anchor: middle; visibility: hidden; font-family: Roboto, sans-serif; font-size: 12px; font-weight: 200;" fill="rgb(33, 33, 33)" stroke="none" stroke-width="1px">0.009</text></g><line x1="0" y1="0" x2="1002.5274999999999" y2="0" fill="rgb(0, 0, 0)" stroke="rgb(204, 204, 204)" stroke-width="1px"></line></g></g></g></g></svg>